<svg width="21" height="21" viewBox="0 0 21 21" fill="none" xmlns="http://www.w3.org/2000/svg">
<g id="add (1) 1">
<g id="layer1">
<path id="circle2847" d="M10.092 1.36084C7.2395 1.36084 4.90618 3.73411 4.90618 6.63335C4.90618 8.40612 5.78115 9.97597 7.11135 10.9311C4.01492 12.1928 1.81863 15.2709 1.81863 18.8616C1.79391 19.9936 3.47728 19.9936 3.45256 18.8616C3.45256 15.0502 6.4761 11.9788 10.226 11.9788C11.535 11.9788 12.7501 12.3579 13.7843 13.0085C14.714 13.5881 15.5693 12.1707 14.6395 11.5912C14.1739 11.2983 13.6693 11.07 13.1492 10.8726C14.4333 9.91265 15.273 8.37087 15.273 6.63335C15.273 3.73411 12.9445 1.36084 10.092 1.36084ZM10.092 3.02321C12.0614 3.02321 13.6391 4.63161 13.6391 6.63335C13.6391 8.63509 12.0614 10.2369 10.092 10.2369C8.12254 10.2369 6.54011 8.63509 6.54011 6.63335C6.54011 4.63161 8.12254 3.02321 10.092 3.02321ZM15.1039 17.1522V18.813C15.1275 19.8958 16.7142 19.8958 16.7378 18.813V17.1522H18.3733C19.4637 17.1522 19.4637 15.49 18.3733 15.49H16.7378V13.8292C16.7431 13.3637 16.3709 12.9845 15.9129 12.9891C15.461 12.9922 15.0986 13.37 15.1039 13.8292V15.49H13.4309C12.3014 15.543 12.3796 17.2052 13.4699 17.1522H15.1039Z" fill="#054A91"/>
</g>
</g>
</svg>
