<svg width="56" height="56" viewBox="0 0 56 56" fill="none" xmlns="http://www.w3.org/2000/svg">
<path opacity="0.5" d="M2.09161 27.3938L0.439209 28.0943C0.439101 28.5131 0.600192 28.9287 0.914488 29.2418L26.9578 55.1941C27.2617 55.497 27.7838 55.6631 28.0903 55.6645C28.4017 55.6659 28.9342 55.502 29.2435 55.1938L55.2823 29.2252C55.5958 28.9125 55.7568 28.498 55.7572 28.0799L54.3204 27.3939C53.5193 27.3939 46.0784 27.3939 37.0375 27.3939L27.3429 30.5233L19.1436 27.3939C10.6391 27.3938 3.55559 27.3938 2.09161 27.3938Z" fill="#86A7D7"/>
<path opacity="0.5" d="M55.7566 28.0801C55.7566 28.4976 55.5958 28.9121 55.2818 29.225L29.2431 55.1936C28.9367 55.5 28.4089 55.6641 28.0981 55.6641V30.2793L37.0375 27.3938H54.3204L55.7566 28.0801Z" fill="#86A7D7"/>
<path d="M19.1434 27.3938L28.0981 55.6641L37.0373 27.3938H19.1434Z" fill="#86A7D7"/>
<path opacity="0.8" d="M37.0374 27.3938L28.0981 55.6641V27.3938H37.0374Z" fill="#86A7D7"/>
<path opacity="0.5" d="M55.4855 27.1804L46.8175 14.1934C46.6976 14.0138 46.5431 13.8612 46.3652 13.7435L45.5795 14.1208L29.5976 14.2204L28.0981 13.4733L26.8863 14.2372L10.9404 14.3366L9.82767 13.7451C9.65102 13.8625 9.49706 14.0146 9.37735 14.1942L0.710072 27.1976C0.527588 27.4714 0.439209 27.7837 0.439209 28.0943C3.57903 28.0935 51.7017 28.0808 55.757 28.0798C55.7572 27.7683 55.6686 27.4548 55.4855 27.1804Z" fill="#86A7D7"/>
<path opacity="0.5" d="M55.7566 28.0801C53.7473 28.0801 40.9146 28.0844 28.0981 28.0876V13.4733L29.5981 14.2199L45.5796 14.1206L46.3652 13.7429C46.5433 13.8617 46.6976 14.0138 46.8174 14.1929L55.4858 27.18C55.6692 27.4553 55.7577 27.7682 55.7566 28.0801Z" fill="#86A7D7"/>
<path opacity="0.6" d="M10.7241 13.4733C10.4004 13.4733 10.0899 13.5706 9.828 13.7449L19.4282 28.0893H19.4293L28.0976 13.4733H10.7241Z" fill="#86A7D7"/>
<path opacity="0.6" d="M36.77 28.0848L46.3648 13.7433C46.1035 13.5701 45.7939 13.4734 45.4712 13.4734H28.0975L36.7631 28.0849H36.77V28.0848Z" fill="#86A7D7"/>
<path opacity="0.2" d="M18.4201 39.3845C15.7109 39.3845 13.5067 37.1805 13.5067 34.4713C13.5067 33.5763 12.7811 32.8507 11.8861 32.8507C10.9911 32.8507 10.2654 33.5763 10.2654 34.4713C10.2654 37.1668 8.07466 39.3845 5.35221 39.3845C4.45718 39.3845 3.73157 40.1101 3.73157 41.0052C3.73157 41.9002 4.45718 42.6258 5.35221 42.6258C8.06137 42.6258 10.2654 44.8299 10.2654 47.539C10.2654 48.4341 10.9911 49.1597 11.8861 49.1597C12.7811 49.1597 13.5067 48.4341 13.5067 47.539C13.5067 44.8437 15.6973 42.6258 18.4201 42.6258C19.3151 42.6258 20.0407 41.9002 20.0407 41.0052C20.0407 40.1101 19.3151 39.3845 18.4201 39.3845Z" fill="#86A7D7"/>
<path opacity="0.2" d="M43.2596 6.88061C40.5504 6.88061 38.3463 4.67654 38.3463 1.96737C38.3463 1.07235 37.6207 0.346735 36.7257 0.346735C35.8307 0.346735 35.105 1.07235 35.105 1.96737C35.105 4.67654 32.9011 6.88061 30.1918 6.88061C29.2968 6.88061 28.5712 7.60622 28.5712 8.50125C28.5712 9.39627 29.2968 10.1219 30.1918 10.1219C32.901 10.1219 35.105 12.326 35.105 15.0351C35.105 15.9301 35.8307 16.6558 36.7257 16.6558C37.6207 16.6558 38.3463 15.9301 38.3463 15.0351C38.3463 12.326 40.5503 10.1219 43.2596 10.1219C44.1546 10.1219 44.8802 9.39627 44.8802 8.50125C44.8802 7.60622 44.1546 6.88061 43.2596 6.88061Z" fill="#86A7D7"/>
</svg>
