<svg width="17" height="17" viewBox="0 0 17 17" fill="none" xmlns="http://www.w3.org/2000/svg">
<g id="check-in 1" clip-path="url(#clip0_416_4386)">
<path id="Vector" d="M15.3541 1.7863H4.11446C3.22726 1.7863 2.50879 2.50477 2.50879 3.39197V15.0331C2.50879 15.9202 3.22726 16.6387 4.11446 16.6387H15.3541C16.2413 16.6387 16.9598 15.9202 16.9598 15.0331V3.39197C16.9598 2.50477 16.2372 1.7863 15.3541 1.7863Z" fill="#F8EC7D"/>
<path id="Vector_2" d="M9.72222 1.7863H4.11446C3.22726 1.7863 2.50879 2.50477 2.50879 3.39197V15.0331C2.50879 15.9202 3.22726 16.6387 4.11446 16.6387H9.72222V1.7863Z" fill="#E2D574"/>
<path id="Vector_3" d="M13.2466 1.74617H15.3942C16.2814 1.74617 16.9998 2.46464 16.9998 3.35184V6.64345H2.54883V3.35184C2.54883 2.46464 3.2673 1.74617 4.1545 1.74617H13.2466Z" fill="#E48E66"/>
<path id="Vector_4" d="M6.42246 3.43211C5.9809 3.43211 5.61963 3.79339 5.61963 4.23495C5.61963 4.67651 5.9809 5.03778 6.42246 5.03778C6.86402 5.03778 7.2253 4.67651 7.2253 4.23495C7.2253 4.02216 7.14094 3.81754 6.98852 3.66497C6.83595 3.51647 6.63524 3.43211 6.42246 3.43211Z" fill="#E48E66"/>
<path id="Vector_5" d="M6.38246 1.74617H4.11446C3.22726 1.74617 2.50879 2.46464 2.50879 3.35184V6.64345H9.8025V1.74617H6.38246Z" fill="#D18162"/>
<path id="Vector_6" d="M2.50879 6.32231H16.9999V7.04486H2.50879V6.32231Z" fill="#B56C55"/>
<g id="Group">
<path id="Vector_7" d="M6.38237 5.39906C5.7401 5.39906 5.21826 4.87722 5.21826 4.23496C5.21826 3.59269 5.7401 3.07085 6.38237 3.07085C7.02464 3.07085 7.54648 3.59269 7.54648 4.23496C7.54648 4.54401 7.42198 4.84116 7.20527 5.05786C6.9845 5.27456 6.68751 5.39906 6.38237 5.39906ZM6.38237 3.7934C6.13744 3.7934 5.94081 3.99003 5.94081 4.23496C5.94081 4.47988 6.13744 4.67651 6.38237 4.67651C6.6273 4.67651 6.82393 4.47988 6.82393 4.23496C6.82393 3.99003 6.62322 3.7934 6.38237 3.7934Z" fill="#E2D574"/>
<path id="Vector_8" d="M13.2066 5.39906C12.5643 5.39906 12.0425 4.87722 12.0425 4.23496C12.0425 3.59269 12.5643 3.07085 13.2066 3.07085C13.8489 3.07085 14.3707 3.59269 14.3707 4.23496C14.3707 4.54401 14.2462 4.84116 14.0295 5.05786C13.8087 5.27456 13.5117 5.39906 13.2066 5.39906ZM13.2066 3.7934C12.9617 3.7934 12.765 3.99003 12.765 4.23496C12.765 4.47988 12.9617 4.67651 13.2066 4.67651C13.4515 4.67651 13.6481 4.47988 13.6481 4.23496C13.6481 3.99003 13.4474 3.7934 13.2066 3.7934Z" fill="#E2D574"/>
<path id="Vector_9" d="M13.2065 3.79339C13.0058 3.79339 12.8452 3.63282 12.8452 3.43211V0.742623C12.8452 0.541914 13.0058 0.381348 13.2065 0.381348C13.4072 0.381348 13.5678 0.541914 13.5678 0.742623V3.43211C13.5678 3.63282 13.4031 3.79339 13.2065 3.79339Z" fill="#E2D574"/>
<path id="Vector_10" d="M6.38227 3.79339C6.18156 3.79339 6.021 3.63282 6.021 3.43211V0.742623C6.021 0.541914 6.18156 0.381348 6.38227 0.381348C6.58298 0.381348 6.74355 0.541914 6.74355 0.742623V3.43211C6.74355 3.63282 6.5789 3.79339 6.38227 3.79339Z" fill="#E2D574"/>
</g>
<path id="Vector_11" d="M8.60239 10.9226L6.71573 9.03596C6.57524 8.89546 6.34646 8.89546 6.20597 9.03596C6.06547 9.17646 6.06547 9.40523 6.20597 9.54573L7.47435 10.8182H0.361275C0.160567 10.8182 0 10.9788 0 11.1795C0 11.3802 0.160567 11.5407 0.361275 11.5407H7.47435L6.20597 12.8093C6.06547 12.9498 6.06547 13.1785 6.20597 13.319C6.34646 13.4595 6.57524 13.4595 6.71573 13.319L8.60239 11.4324C8.74289 11.2919 8.74289 11.067 8.60239 10.9226Z" fill="#B56C55"/>
</g>
<defs>
<clipPath id="clip0_416_4386">
<rect width="17" height="17" fill="white"/>
</clipPath>
</defs>
</svg>
