<svg width="48" height="58" viewBox="0 0 48 58" fill="none" xmlns="http://www.w3.org/2000/svg">
<path d="M46.4636 14.4224L32.3688 1.29777C32.3688 1.29776 32.3688 1.29775 32.3688 1.29774C31.9919 0.946671 31.4813 0.75 30.9524 0.75H6.28572C3.25019 0.75 0.75 3.05339 0.75 5.92188V52.0781C0.75 54.9466 3.25019 57.25 6.28572 57.25H41.5238C44.5593 57.25 47.0595 54.9466 47.0595 52.0781V15.7656C47.0595 15.2432 46.8247 14.7585 46.4636 14.4224ZM32.9643 12.4844V7.17582L40.1587 13.875H34.4762C33.6257 13.875 32.9643 13.2345 32.9643 12.4844ZM41.5238 53.4688H6.28572C5.43518 53.4688 4.77381 52.8282 4.77381 52.0781V5.92188C4.77381 5.1718 5.43518 4.53125 6.28572 4.53125H28.9405V12.4844C28.9405 15.3529 31.4407 17.6562 34.4762 17.6562H43.0357V52.0781C43.0357 52.8282 42.3744 53.4688 41.5238 53.4688Z" fill="#054A91" stroke="#054A91" stroke-width="0.5"/>
<path d="M34.4673 24.1874H13.3244C12.3514 24.1874 11.5625 24.922 11.5625 25.8281C11.5625 26.7341 12.3514 27.4687 13.3244 27.4687H34.4673C35.4403 27.4687 36.2292 26.7341 36.2292 25.8281C36.2292 24.922 35.4403 24.1874 34.4673 24.1874Z" fill="#054A91"/>
<path d="M34.4673 30.7501H13.3244C12.3514 30.7501 11.5625 31.4847 11.5625 32.3907C11.5625 33.2968 12.3514 34.0313 13.3244 34.0313H34.4673C35.4403 34.0313 36.2292 33.2968 36.2292 32.3907C36.2292 31.4847 35.4403 30.7501 34.4673 30.7501Z" fill="#054A91"/>
<path d="M34.4673 37.3126H13.3244C12.3514 37.3126 11.5625 38.0472 11.5625 38.9532C11.5625 39.8593 12.3514 40.5938 13.3244 40.5938H34.4673C35.4403 40.5938 36.2292 39.8593 36.2292 38.9532C36.2292 38.0472 35.4403 37.3126 34.4673 37.3126Z" fill="#054A91"/>
<path d="M27.4196 43.8751H13.3244C12.3514 43.8751 11.5625 44.6097 11.5625 45.5157C11.5625 46.4218 12.3514 47.1563 13.3244 47.1563H27.4196C28.3927 47.1563 29.1815 46.4218 29.1815 45.5157C29.1815 44.6097 28.3927 43.8751 27.4196 43.8751Z" fill="#054A91"/>
</svg>
