<svg xmlns="http://www.w3.org/2000/svg" xmlns:xlink="http://www.w3.org/1999/xlink" width="8000" zoomAndPan="magnify" viewBox="0 0 6000 675.000002" height="900" preserveAspectRatio="xMidYMid meet" version="1.0"><defs><filter x="0%" y="0%" width="100%" height="100%" id="dac579b487"><feColorMatrix values="0 0 0 0 1 0 0 0 0 1 0 0 0 0 1 0 0 0 1 0" color-interpolation-filters="sRGB"/></filter><clipPath id="6b754a9ad2"><path d="M 4.4375 66 L 5376 66 L 5376 674 L 4.4375 674 Z M 4.4375 66 " clip-rule="nonzero"/></clipPath><mask id="1916652b42"><g filter="url(#dac579b487)"><rect x="-600" width="7200" fill="#000000" y="-67.5" height="810.000002" fill-opacity="0.7"/></g></mask><clipPath id="114f3df509"><path d="M 0.4375 13 L 5364 13 L 5364 608 L 0.4375 608 Z M 0.4375 13 " clip-rule="nonzero"/></clipPath><clipPath id="e754d5dfa8"><path d="M 0.4375 0.382812 L 5371.839844 0.382812 L 5371.839844 608 L 0.4375 608 Z M 0.4375 0.382812 " clip-rule="nonzero"/></clipPath><clipPath id="1afe8f7e22"><rect x="0" width="5372" y="0" height="608"/></clipPath><clipPath id="26bcb3808a"><path d="M 4.4375 63 L 5995.5625 63 L 5995.5625 674 L 4.4375 674 Z M 4.4375 63 " clip-rule="nonzero"/></clipPath></defs><g clip-path="url(#6b754a9ad2)"><g mask="url(#1916652b42)"><g transform="matrix(1, 0, 0, 1, 4, 66)"><g clip-path="url(#1afe8f7e22)"><g clip-path="url(#114f3df509)"><path fill="#054a91" d="M 1510.546875 73.042969 C 914.277344 206.554688 255.371094 316.664062 0.449219 355.03125 L 0.449219 699.367188 L 5023.53125 699.367188 L 5363.316406 363.460938 C 5141.480469 513.089844 3996.179688 212.117188 3621.160156 136.347656 C 3166.066406 59.613281 2106.820312 -60.46875 1510.546875 73.042969 Z M 1510.546875 73.042969 " fill-opacity="1" fill-rule="nonzero"/></g><g clip-path="url(#e754d5dfa8)"><path stroke-linecap="butt" transform="matrix(4.160489, 0, 0, 4.159598, 0.448036, -65.99998)" fill="none" stroke-linejoin="miter" d="M 362.961895 33.427015 C 219.644707 65.524279 61.272384 91.995436 0.00028426 101.219209 L 0.00028426 184.000268 L 1207.330114 184.000268 L 1288.999645 103.245772 C 1235.679962 139.217734 960.399608 66.861548 870.26127 48.645958 C 760.876582 30.198413 506.280022 1.329751 362.961895 33.427015 Z M 362.961895 33.427015 " stroke="#054a91" stroke-width="1" stroke-opacity="1" stroke-miterlimit="4"/></g></g></g></g></g><g clip-path="url(#26bcb3808a)"><path fill="#054a91" d="M 2055.570312 318.207031 C 1235.804688 242.445312 348.804688 80.519531 4.449219 112.085938 L 4.449219 765.367188 L 5985.398438 765.367188 C 5993.054688 552.761719 6120.035156 102.171875 6101.644531 72.792969 C 6083.253906 43.414062 5650.105469 95.335938 5493.964844 115.953125 L 4485.960938 220.324219 C 3417.351562 302.464844 3080.277344 412.914062 2055.570312 318.207031 Z M 2055.570312 318.207031 " fill-opacity="1" fill-rule="nonzero"/></g><path fill="#054a91" d="M 5433.886719 84.15625 C 4663.363281 -160.523438 3706.589844 186.105469 3324.519531 390.003906 C 4232.210938 474 6032.996094 602.710938 5974.75 445.613281 C 5916.503906 288.519531 5589.902344 139.1875 5433.886719 84.15625 Z M 5433.886719 84.15625 " fill-opacity="0.3" fill-rule="nonzero"/></svg>