<svg width="57" height="56" viewBox="0 0 57 56" fill="none" xmlns="http://www.w3.org/2000/svg">
<g clip-path="url(#clip0_416_3565)">
<path fill-rule="evenodd" clip-rule="evenodd" d="M42.4886 55.6098H14.6837C10.9966 55.6096 7.46054 54.1448 4.85336 51.5376C2.24618 48.9305 0.781411 45.3944 0.78125 41.7073L0.78125 13.9024C0.781411 10.2153 2.24618 6.67929 4.85336 4.07211C7.46054 1.46493 10.9966 0.0001613 14.6837 0L42.4886 0C46.1757 0 49.7119 1.46472 52.3191 4.07193C54.9263 6.67914 56.391 10.2153 56.391 13.9024V41.7073C56.391 45.3945 54.9263 48.9306 52.3191 51.5378C49.7119 54.145 46.1757 55.6098 42.4886 55.6098Z" fill="#DEEBF5"/>
<path fill-rule="evenodd" clip-rule="evenodd" d="M26.8483 15.6402H42.4886C44.4934 15.6401 46.4216 14.8701 47.8749 13.4892C49.3283 12.1083 50.1959 10.222 50.2985 8.21982C50.4011 6.21765 49.7309 4.25255 48.4262 2.73032C47.1216 1.2081 45.2822 0.245015 43.288 0.0399695C43.0221 0.0251982 42.7588 0 42.4886 0H14.6837C10.9966 0.0001613 7.46054 1.46493 4.85336 4.07211C2.24618 6.67929 0.781411 10.2153 0.78125 13.9024L0.78125 41.7073C0.781411 34.7939 3.52781 28.1638 8.4163 23.2753C13.3048 18.3868 19.935 15.6404 26.8483 15.6402Z" fill="#F0FAFF"/>
<path fill-rule="evenodd" clip-rule="evenodd" d="M42.4884 27.8049C39.7387 27.8049 37.0508 28.6202 34.7646 30.1479C32.4784 31.6755 30.6964 33.8467 29.6442 36.3871C28.592 38.9274 28.3166 41.7227 28.8531 44.4195C29.3895 47.1164 30.7136 49.5935 32.6579 51.5378C34.6022 53.4821 37.0793 54.8062 39.7762 55.3426C42.473 55.879 45.2683 55.6037 47.8086 54.5515C50.349 53.4992 52.5202 51.7173 54.0478 49.4311C55.5755 47.1448 56.3908 44.457 56.3908 41.7073V13.9024C56.3908 17.5896 54.9261 21.1257 52.3189 23.7329C49.7117 26.3402 46.1755 27.8049 42.4884 27.8049Z" fill="#CDDCEB"/>
<path d="M45.9634 28.2124C45.9634 27.5355 45.9321 26.856 45.8687 26.1809C45.8272 25.7516 45.6273 25.3532 45.3079 25.0634C44.9885 24.7735 44.5726 24.6131 44.1413 24.6134C41.035 24.6099 33.9595 24.6099 30.6734 24.6099C30.2125 24.6099 29.7704 24.793 29.4445 25.1189C29.1186 25.4448 28.9355 25.8868 28.9355 26.3477V29.6991C28.9357 30.1599 29.1188 30.6019 29.4447 30.9277C29.7706 31.2536 30.2125 31.4367 30.6734 31.4369H38.5109C38.3148 32.5277 37.8997 33.5674 37.2907 34.4933C36.6817 35.4192 35.8914 36.2121 34.9675 36.8241V36.8258C34.9674 37.4073 35.0819 37.9831 35.3045 38.5204C35.527 39.0576 35.8531 39.5457 36.2643 39.9569C36.6755 40.3681 37.1636 40.6943 37.7009 40.9168C38.2381 41.1393 38.8139 41.2538 39.3954 41.2538H40.6805C44.0353 38.1665 45.9634 33.6065 45.9634 28.2124Z" fill="#1E78FF"/>
<path d="M28.9364 45.534C33.2556 45.6554 37.4583 44.1246 40.6875 41.2538L34.9753 36.8241C33.5996 37.7046 32.0413 38.2601 30.4189 38.4484C28.7964 38.6368 27.1523 38.4531 25.6115 37.9112C24.0706 37.3693 22.6734 36.4835 21.526 35.3211C20.3786 34.1586 19.511 32.7501 18.9893 31.2023H17.659C16.4482 31.2024 15.2871 31.6834 14.431 32.5395C13.5749 33.3957 13.0939 34.5568 13.0938 35.7675V35.7692C14.5704 38.705 16.8337 41.1726 19.6312 42.8969C22.4287 44.6211 25.6503 45.5341 28.9364 45.534Z" fill="#00B450"/>
<path d="M18.9837 31.2023C18.2408 29.0009 18.2408 26.6166 18.9837 24.4153V24.4136C18.9836 23.2028 18.5026 22.0417 17.6465 21.1856C16.7903 20.3295 15.6292 19.8485 14.4185 19.8483H13.0943C11.8546 22.3188 11.209 25.0447 11.209 27.8088C11.209 30.5729 11.8546 33.2988 13.0943 35.7692L18.9837 31.2023Z" fill="#FFB400"/>
<path d="M28.9364 17.0931C30.9554 17.0612 32.9335 17.6636 34.5921 18.8152C34.9213 19.0549 35.3253 19.1691 35.7312 19.1373C36.1372 19.1054 36.5184 18.9296 36.8061 18.6414C37.6011 17.8872 38.6464 16.8419 39.4702 16.0182C39.6449 15.8436 39.7803 15.6337 39.8676 15.4026C39.9548 15.1715 39.9917 14.9245 39.9759 14.678C39.9601 14.4315 39.892 14.1912 39.776 13.9731C39.66 13.755 39.4989 13.5642 39.3033 13.4132C36.3002 11.2078 32.6622 10.0372 28.9364 10.0775C25.6495 10.0771 22.4271 10.9907 19.6294 12.7161C16.8317 14.4416 14.5689 16.9109 13.0938 19.8483L18.9832 24.4153C19.6687 22.3076 20.9976 20.4677 22.7829 19.1543C24.5682 17.841 26.7202 17.1201 28.9364 17.0931Z" fill="#E60014"/>
</g>
<defs>
<clipPath id="clip0_416_3565">
<rect x="0.78125" width="55.6098" height="55.6098" rx="27.8049" fill="white"/>
</clipPath>
</defs>
</svg>
