<svg width="56" height="56" viewBox="0 0 56 56" fill="none" xmlns="http://www.w3.org/2000/svg">
<circle cx="28.0002" cy="28.1951" r="27.8049" fill="black"/>
<g clip-path="url(#clip0_416_3574)">
<path d="M34.0258 14.2927C34.0928 14.2927 34.1598 14.2927 34.2306 14.2927C34.3949 16.3224 33.6201 17.8391 32.6786 18.9374C31.7547 20.0281 30.4896 21.0859 28.4434 20.9254C28.3069 18.9247 29.0829 17.5206 30.0232 16.4248C30.8953 15.4036 32.494 14.4949 34.0258 14.2927Z" fill="white"/>
<path d="M40.2207 35.4193C40.2207 35.4396 40.2207 35.4572 40.2207 35.4762C39.6456 37.2178 38.8254 38.7104 37.8244 40.0956C36.9106 41.3531 35.7908 43.0455 33.7914 43.0455C32.0637 43.0455 30.9161 41.9345 29.1455 41.9042C27.2724 41.8739 26.2424 42.8331 24.5299 43.0745C24.334 43.0745 24.1381 43.0745 23.9459 43.0745C22.6884 42.8925 21.6735 41.8966 20.9342 40.9993C18.754 38.3477 17.0693 34.9226 16.7559 30.5396C16.7559 30.1099 16.7559 29.6814 16.7559 29.2517C16.8886 26.1148 18.4128 23.5643 20.4387 22.3283C21.508 21.6711 22.9778 21.1112 24.6145 21.3614C25.316 21.4701 26.0326 21.7103 26.6607 21.9479C27.256 22.1766 28.0004 22.5823 28.7056 22.5608C29.1834 22.5469 29.6586 22.298 30.1401 22.1223C31.5506 21.6129 32.9332 21.029 34.7557 21.3033C36.946 21.6344 38.5005 22.6076 39.4611 24.1091C37.6083 25.2882 36.1434 27.0652 36.3937 30.0998C36.6161 32.8562 38.2187 34.4689 40.2207 35.4193Z" fill="white"/>
</g>
<defs>
<clipPath id="clip0_416_3574">
<rect width="28.7818" height="28.7818" fill="white" transform="translate(14.0977 14.2927)"/>
</clipPath>
</defs>
</svg>
