<svg width="1440" height="184" viewBox="0 0 1440 184" fill="none" xmlns="http://www.w3.org/2000/svg">
<path opacity="0.7" d="M362.962 33.4269C219.645 65.5246 61.272 91.9959 0 101.219V184H1207.33L1289 103.246C1235.68 139.218 960.4 66.862 870.261 48.6456C760.877 30.1987 506.28 1.32929 362.962 33.4269Z" fill="#054A91" stroke="#054A91"/>
<path d="M493 76.4999C295.964 58.2854 82.7685 19.3574 0 26.9467V184H1437.56C1439.4 132.888 1469.92 24.5625 1465.5 17.4997C1461.08 10.437 1356.97 22.9198 1319.44 27.8761L1077.16 52.9674C820.313 72.7152 739.295 99.2679 493 76.4999Z" fill="#054A91"/>
<path opacity="0.3" d="M1305 20.2318C1119.8 -38.591 889.833 44.7413 798 93.7603C1016.17 113.953 1449 144.896 1435 107.129C1421 69.3624 1342.5 33.4614 1305 20.2318Z" fill="#054A91"/>
</svg>
