<svg width="57" height="56" viewBox="0 0 57 56" fill="none" xmlns="http://www.w3.org/2000/svg">
<path d="M28.4162 56C43.7724 56 56.2211 43.5513 56.2211 28.1951C56.2211 12.8389 43.7724 0.390244 28.4162 0.390244C13.06 0.390244 0.611328 12.8389 0.611328 28.1951C0.611328 43.5513 13.06 56 28.4162 56Z" fill="#007AB9"/>
<path d="M45.0292 30.4324V41.8958H38.383V31.2007C38.383 28.5153 37.4234 26.6814 35.0171 26.6814C33.1807 26.6814 32.0898 27.916 31.608 29.1115C31.433 29.5388 31.3879 30.1321 31.3879 30.7313V41.8953H24.7413C24.7413 41.8953 24.8305 23.7813 24.7413 21.9063H31.3884V24.7389C31.375 24.7612 31.3562 24.783 31.3443 24.8043H31.3884V24.7389C32.2717 23.3799 33.8468 21.4369 37.3783 21.4369C41.7509 21.4369 45.0292 24.2938 45.0292 30.4324ZM17.7883 12.2709C15.5148 12.2709 14.0273 13.7633 14.0273 15.7241C14.0273 17.6432 15.4717 19.1787 17.7011 19.1787H17.7442C20.0624 19.1787 21.5037 17.6432 21.5037 15.7241C21.4596 13.7633 20.0624 12.2709 17.7883 12.2709ZM14.4224 41.8958H21.0665V21.9063H14.4224V41.8958Z" fill="#F1F2F2"/>
</svg>
