<svg width="68" height="68" viewBox="0 0 68 68" fill="none" xmlns="http://www.w3.org/2000/svg">
<path d="M54.23 61.625H13.77C11.8087 61.625 9.92778 60.8459 8.54095 59.4591C7.15411 58.0722 6.375 56.1913 6.375 54.23V13.77C6.375 11.8087 7.15411 9.92778 8.54095 8.54095C9.92778 7.15411 11.8087 6.375 13.77 6.375H54.23C56.1913 6.375 58.0722 7.15411 59.4591 8.54095C60.8459 9.92778 61.625 11.8087 61.625 13.77V54.23C61.625 56.1913 60.8459 58.0722 59.4591 59.4591C58.0722 60.8459 56.1913 61.625 54.23 61.625ZM13.77 10.625C12.9359 10.625 12.136 10.9563 11.5461 11.5461C10.9563 12.136 10.625 12.9359 10.625 13.77V54.23C10.625 55.0641 10.9563 55.864 11.5461 56.4538C12.136 57.0437 12.9359 57.375 13.77 57.375H54.23C55.0641 57.375 55.864 57.0437 56.4538 56.4538C57.0437 55.864 57.375 55.0641 57.375 54.23V13.77C57.375 12.9359 57.0437 12.136 56.4538 11.5461C55.864 10.9563 55.0641 10.625 54.23 10.625H13.77Z" fill="#054A91"/>
<path d="M8.50012 53.295C8.19403 53.294 7.89167 53.2278 7.61318 53.1008C7.3347 52.9738 7.08649 52.7888 6.88512 52.5583C6.70388 52.3447 6.56665 52.0974 6.48133 51.8306C6.39601 51.5638 6.36429 51.2827 6.38799 51.0036C6.41169 50.7245 6.49034 50.4528 6.61942 50.2042C6.7485 49.9556 6.92546 49.7349 7.14012 49.555L21.6468 37.315C22.7299 36.4008 24.1162 35.9258 25.5324 35.9834C26.9485 36.0411 28.2916 36.6274 29.2968 37.6266L36.1818 44.5116C36.4384 44.7311 36.765 44.8517 37.1026 44.8517C37.4403 44.8517 37.7669 44.7311 38.0235 44.5116L44.7101 39.6666C45.701 38.9039 46.9163 38.4903 48.1668 38.4903C49.4173 38.4903 50.6326 38.9039 51.6235 39.6666L60.8318 47.005C61.0513 47.1799 61.2343 47.3963 61.3702 47.6418C61.506 47.8874 61.5922 48.1573 61.6238 48.4362C61.6554 48.7151 61.6317 48.9975 61.5542 49.2672C61.4766 49.537 61.3467 49.7888 61.1718 50.0083C60.9969 50.2278 60.7805 50.4108 60.5349 50.5467C60.2894 50.6825 60.0194 50.7687 59.7405 50.8003C59.4617 50.8319 59.1793 50.8082 58.9095 50.7307C58.6398 50.6531 58.388 50.5232 58.1685 50.3483L48.9885 42.9816C48.7407 42.7909 48.4369 42.6875 48.1243 42.6875C47.8117 42.6875 47.5078 42.7909 47.2601 42.9816L40.5735 48.1666C39.4851 48.9839 38.1389 49.3821 36.781 49.2885C35.4231 49.1948 34.1444 48.6156 33.1785 47.6566L26.2935 40.63C26.0331 40.395 25.6949 40.265 25.3443 40.265C24.9936 40.265 24.6554 40.395 24.3951 40.63L9.86012 52.8133C9.48059 53.1342 8.99699 53.3054 8.50012 53.295Z" fill="#054A91"/>
<path d="M42.4999 33.2917C40.9589 33.2917 39.4524 32.8347 38.1711 31.9786C36.8898 31.1224 35.8911 29.9055 35.3014 28.4818C34.7116 27.058 34.5573 25.4914 34.858 23.9799C35.1586 22.4685 35.9007 21.0802 36.9904 19.9905C38.0801 18.9008 39.4684 18.1587 40.9798 17.8581C42.4913 17.5574 44.0579 17.7117 45.4817 18.3015C46.9054 18.8912 48.1223 19.8899 48.9785 21.1712C49.8346 22.4525 50.2916 23.959 50.2916 25.5C50.2916 27.5665 49.4707 29.5483 48.0095 31.0096C46.5482 32.4708 44.5664 33.2917 42.4999 33.2917ZM42.4999 21.9583C41.7995 21.9583 41.1147 22.1661 40.5323 22.5552C39.9499 22.9444 39.4959 23.4975 39.2279 24.1447C38.9598 24.7918 38.8897 25.5039 39.0263 26.191C39.163 26.878 39.5003 27.509 39.9956 28.0044C40.4909 28.4997 41.122 28.837 41.809 28.9736C42.496 29.1103 43.2081 29.0402 43.8553 28.7721C44.5024 28.504 45.0556 28.0501 45.4447 27.4677C45.8339 26.8852 46.0416 26.2005 46.0416 25.5C46.0416 24.5607 45.6685 23.6599 45.0043 22.9957C44.3401 22.3315 43.4392 21.9583 42.4999 21.9583Z" fill="#054A91"/>
</svg>
