<svg width="30" height="30" viewBox="0 0 30 30" fill="none" xmlns="http://www.w3.org/2000/svg">
<g id="instagram (3)" clip-path="url(#clip0_416_847)">
<path id="Vector 26" d="M1.5 23.5V6.5C1.5 3.73858 3.73858 1.5 6.5 1.5H23C25.7614 1.5 28 3.73858 28 6.5V23.5C28 26.2614 25.7614 28.5 23 28.5H6.5C3.73858 28.5 1.5 26.2614 1.5 23.5Z" stroke="black"/>
<path id="Vector" d="M15.0041 20.9911C11.6904 20.9911 9.00789 18.307 9.00789 14.9949C9.00789 11.6826 11.6919 8.99861 15.0041 8.99861C18.3163 8.99861 21.0001 11.6823 21.0004 14.9944L15.0041 20.9911ZM15.0041 20.9911C18.3173 20.9911 21.0016 18.3075 21.0004 14.9949L15.0041 20.9911ZM8.30664 14.9949C8.30664 11.2968 11.303 8.29736 15.0041 8.29736C18.7022 8.29736 21.7016 11.2937 21.7016 14.9949C21.7016 18.6929 18.7053 21.6924 15.0041 21.6924C11.3061 21.6924 8.30664 18.696 8.30664 14.9949Z" stroke="white" stroke-width="2"/>
<path id="Vector_2" d="M3.3608 26.6389C3.34848 26.6267 3.33618 26.6145 3.32391 26.6022C1.91642 25.2002 1.42164 23.4273 1.23862 21.5297C1.10913 20.1871 1.12639 18.6119 1.14507 16.907C1.15189 16.2852 1.15889 15.6461 1.15903 14.9947C1.15903 14.9881 1.15903 14.9814 1.15903 14.9747C1.15903 14.4053 1.15384 13.8333 1.14871 13.2684C1.13884 12.1821 1.1292 11.1219 1.15722 10.1559C1.20021 8.67397 1.33227 7.22348 1.7426 5.94282C2.05947 4.95385 2.55014 4.04272 3.29986 3.28929C3.54884 3.03908 3.82639 2.80626 4.13564 2.59376C5.34908 1.75993 6.90581 1.33895 8.80481 1.24169L8.81669 1.24108L8.82858 1.24066L8.87727 1.23894L8.82653 0.0947216L8.88015 1.23883L8.88281 1.23874C10.4562 1.18315 10.9777 1.16472 14.9515 1.16472H15.4057L15.4604 1.20118L3.3608 26.6389ZM3.3608 26.6389L2.53167 27.4683L3.36098 26.639M15.0078 1.5005C14.989 1.50051 14.9703 1.50052 14.9515 1.50053C12.5947 1.50177 10.2446 1.53338 8.89492 1.59316C8.87696 1.59401 8.85903 1.59488 8.84113 1.59578C8.83508 1.59608 8.82903 1.59639 8.82299 1.5967C6.63307 1.70905 4.9389 2.23493 3.59219 3.58163C2.45276 4.72106 1.91904 6.06648 1.67878 7.89696C1.48152 9.3998 1.49308 11.0972 1.50727 13.1811C1.51114 13.749 1.5152 14.3456 1.51528 14.9747C1.51528 14.9814 1.51528 14.9881 1.51528 14.9947C1.51528 15.5857 1.51231 16.1474 1.50947 16.6829C1.49788 18.8729 1.4886 20.625 1.69452 22.1541C1.93641 23.9502 2.45904 25.2565 3.55372 26.369L4.38403 25.541L3.5568 26.3722C3.56846 26.384 3.58018 26.3958 3.59197 26.4076L15.0078 1.5005ZM15.0078 1.5005V2.58035V2.70222V1.5005Z" stroke="white" stroke-width="3"/>
<path id="Vector_3" d="M23.0077 8.79281C24.0012 8.79281 24.8065 7.98748 24.8065 6.99406C24.8065 6.00064 24.0012 5.19531 23.0077 5.19531C22.0143 5.19531 21.209 6.00064 21.209 6.99406C21.209 7.98748 22.0143 8.79281 23.0077 8.79281Z" fill="white"/>
</g>
<defs>
<clipPath id="clip0_416_847">
<rect width="30" height="30" fill="white"/>
</clipPath>
</defs>
</svg>
