<svg width="1441" height="351" viewBox="0 0 1441 351" fill="none" xmlns="http://www.w3.org/2000/svg">
<rect opacity="0.3" width="1440" height="350" fill="#FFF6D6"/>
<path d="M530.929 299.997C505.288 303.872 464.399 348.116 461 350H1440V222.497C1427.86 226.533 1398.33 232.184 1377.36 222.497C1351.13 210.388 1333.65 207.966 1323.45 210.388C1315.29 212.325 1295.77 213.886 1287.03 214.424C1274.41 214.155 1245.07 211.195 1228.76 201.507C1208.36 189.398 1192.34 201.507 1179.22 201.507C1168.74 201.507 1146.69 197.74 1136.98 195.856C1129.69 194.511 1110.75 193.757 1093.27 201.507C1071.42 211.195 1065.59 211.195 1062.68 212.002C1059.76 212.809 1042.28 210.388 1021.89 204.737C1001.78 199.167 985.926 204.576 967.341 210.917L966.525 211.195C947.586 217.653 933.018 212.809 906.795 210.388C880.571 207.966 879.115 214.424 855.805 222.497C832.496 230.57 819.384 224.919 801.902 222.497C784.42 220.075 765.481 220.882 755.283 232.992C747.124 242.679 720.804 241.872 708.664 240.257C697.009 238.912 670.786 238.804 659.131 249.138C647.476 259.471 636.793 263.669 632.908 264.476C629.508 265.822 617.757 268.351 597.943 267.705C578.13 267.059 567.35 273.894 564.436 277.393C553.947 292.247 537.727 298.651 530.929 299.997Z" fill="black" stroke="black" stroke-linecap="round"/>
<path d="M1250.09 141.709C1244.72 159.977 1233.66 187.76 1213.24 206.028L1063.13 214.831C1034.94 197.988 1020.75 163.234 1014.42 141.709C1022.45 136.292 1032.03 133.393 1041.86 133.415H1222.65C1232.47 133.393 1242.06 136.292 1250.09 141.709Z" fill="#ECF0F1"/>
<path d="M1220.79 198.396C1218.44 201.086 1215.92 203.635 1213.24 206.029L1179.1 208.013L1193.67 158.859H1209.09L1220.79 198.396Z" fill="#C03A2B"/>
<path d="M1087 213.407L1063.13 214.832C1055.81 210.343 1049.26 204.799 1043.72 198.396L1055.42 158.859H1070.84L1087 213.407Z" fill="#C03A2B"/>
<path d="M1063.13 133.416C1086.62 133.416 1105.67 115.19 1105.67 92.7079C1105.67 70.2255 1086.62 52 1063.13 52C1039.63 52 1020.59 70.2255 1020.59 92.7079C1020.59 115.19 1039.63 133.416 1063.13 133.416Z" fill="#F9C795"/>
<path d="M1201.38 133.416C1224.88 133.416 1243.92 115.19 1243.92 92.7079C1243.92 70.2255 1224.88 52 1201.38 52C1177.89 52 1158.84 70.2255 1158.84 92.7079C1158.84 115.19 1177.89 133.416 1201.38 133.416Z" fill="#F9C795"/>
<path d="M1270.51 179.213V217.479L1063.13 235.186H1004.63C998.769 235.17 994.018 230.623 994 225.009V179.213C993.998 164.271 1001.62 150.27 1014.42 141.711C1020.75 163.235 1034.94 197.99 1063.13 214.832L1213.24 206.029C1233.66 187.762 1244.72 159.979 1250.09 141.711C1262.89 150.27 1270.51 164.271 1270.51 179.213Z" fill="#2C3E50"/>
<path d="M1151.66 223.838C1146.12 230.241 1139.57 235.786 1132.25 240.274C1124.94 235.786 1118.39 230.241 1112.85 223.838L1124.54 184.301H1139.96L1151.66 223.838Z" fill="#C03A2B"/>
<path d="M1180.96 167.153C1175.35 187.768 1165.38 207.061 1151.66 223.839L1139.97 184.301H1124.54L1112.85 223.839C1099.13 207.061 1089.16 187.768 1083.55 167.153C1091.57 161.735 1101.16 158.837 1110.99 158.859H1153.52C1163.35 158.837 1172.94 161.735 1180.96 167.153Z" fill="white"/>
<path d="M1201.38 204.655V209.388L1155.23 260.629H1073.76C1067.9 260.612 1063.14 256.065 1063.13 250.452V204.655C1063.12 189.714 1070.75 175.713 1083.55 167.153C1089.87 188.677 1104.07 223.432 1132.25 240.275C1160.44 223.432 1174.63 188.677 1180.96 167.153C1193.76 175.713 1201.38 189.714 1201.38 204.655Z" fill="#35495E"/>
<path d="M1110.98 158.859L1124.56 184.301H1139.95L1153.52 158.859H1110.98Z" fill="#E64C3C"/>
<path d="M1132.25 158.859C1155.75 158.859 1174.79 140.634 1174.79 118.151C1174.79 95.6689 1155.75 77.4434 1132.25 77.4434C1108.76 77.4434 1089.71 95.6689 1089.71 118.151C1089.71 140.634 1108.76 158.859 1132.25 158.859Z" fill="#FDD7AD"/>
<path d="M1180.11 133.415L1193.69 158.857H1209.08L1222.65 133.415H1180.11Z" fill="#E64C3C"/>
<path d="M1084.4 133.415L1070.82 158.857H1055.43L1041.86 133.415H1084.4Z" fill="#E64C3C"/>
<path d="M1203 298C1227.85 298 1248 277.853 1248 253C1248 228.147 1227.85 208 1203 208C1178.15 208 1158 228.147 1158 253C1158 277.853 1178.15 298 1203 298Z" fill="#4FBA6F"/>
<path d="M1226 253C1225.99 256.034 1223.42 258.491 1220.25 258.5H1208.75V269.5C1208.75 272.538 1206.18 275 1203 275C1199.82 275 1197.25 272.538 1197.25 269.5V258.5H1185.75C1182.58 258.491 1180.01 256.034 1180 253C1180.02 249.972 1182.58 247.522 1185.75 247.5H1197.25V236.5C1197.26 233.466 1199.83 231.009 1203 231C1206.17 231.022 1208.73 233.472 1208.75 236.5V247.5H1220.25C1223.42 247.509 1225.99 249.966 1226 253Z" fill="#ECF0F1"/>
</svg>
