<svg width="19" height="22" viewBox="0 0 19 22" fill="none" xmlns="http://www.w3.org/2000/svg">
<path d="M2.20866 21.6563C1.92723 21.6552 1.6496 21.5911 1.39616 21.4688C1.08549 21.3228 0.822657 21.0916 0.63825 20.8021C0.453842 20.5125 0.35544 20.1766 0.354492 19.8333V2.12501C0.35585 1.88337 0.404964 1.64438 0.499011 1.42178C0.593058 1.19919 0.730183 0.997383 0.902498 0.827972C1.07481 0.658561 1.27892 0.524887 1.50308 0.434636C1.72724 0.344386 1.96703 0.29934 2.20866 0.30209H16.792C17.2746 0.304825 17.7367 0.497759 18.078 0.839032C18.4192 1.1803 18.6122 1.64238 18.6149 2.12501V19.8333C18.6081 20.1632 18.512 20.4851 18.3367 20.7646C18.1613 21.0441 17.9134 21.2708 17.6194 21.4205C17.3254 21.5702 16.9962 21.6372 16.6671 21.6146C16.3379 21.5919 16.021 21.4803 15.7503 21.2917L9.70866 16.7604C9.66432 16.7249 9.60921 16.7056 9.55241 16.7056C9.49561 16.7056 9.4405 16.7249 9.39616 16.7604L3.30241 21.2917C2.98617 21.527 2.60284 21.6548 2.20866 21.6563ZM2.20866 1.86459C2.13959 1.86459 2.07335 1.89203 2.02452 1.94086C1.97568 1.9897 1.94824 2.05594 1.94824 2.12501V19.8333C1.94788 19.8815 1.96145 19.9288 1.98732 19.9695C2.01319 20.0101 2.05027 20.0424 2.09408 20.0625C2.13395 20.0898 2.18116 20.1045 2.22949 20.1045C2.27783 20.1045 2.32503 20.0898 2.36491 20.0625L8.45866 15.5104C8.77553 15.2769 9.1588 15.151 9.55241 15.151C9.94602 15.151 10.3293 15.2769 10.6462 15.5104L16.6878 20.0417C16.7277 20.069 16.7749 20.0836 16.8232 20.0836C16.8716 20.0836 16.9188 20.069 16.9587 20.0417C17.0025 20.0216 17.0395 19.9893 17.0654 19.9486C17.0913 19.908 17.1049 19.8607 17.1045 19.8125V2.12501C17.1053 2.08595 17.0973 2.04721 17.0811 2.01167C17.0649 1.97613 17.0409 1.94469 17.0108 1.91968C16.9808 1.89467 16.9456 1.87673 16.9077 1.8672C16.8698 1.85766 16.8303 1.85677 16.792 1.86459H2.20866Z" fill="black"/>
</svg>
