<svg width="64" height="64" viewBox="0 0 64 64" fill="none" xmlns="http://www.w3.org/2000/svg">
<g id="letter 1">
<g id="Group">
<g id="Group_2">
<g id="Group_3">
<path id="Vector" d="M14.332 9.68994H57.099V37.6069H14.332V9.68994Z" fill="#F8F3F3"/>
</g>
</g>
<g id="Group_4">
<g id="Group_5">
<path id="Vector_2" d="M14.332 9.68994L35.716 28.0229L57.099 9.68994H14.332Z" fill="#F8F3F3"/>
</g>
</g>
<g id="Group_6">
<g id="Group_7">
<path id="Vector_3" d="M35.716 28.0229L14.332 9.68994V12.2839L35.716 30.6169L57.099 12.2839V9.68994L35.716 28.0229Z" fill="#E1DDDD"/>
</g>
</g>
<g id="Group_8">
<g id="Group_9">
<path id="Vector_4" d="M57.099 9.18994H14.332C14.056 9.18994 13.832 9.41394 13.832 9.68994V37.6069C13.832 37.8829 14.056 38.1069 14.332 38.1069H57.099C57.375 38.1069 57.599 37.8829 57.599 37.6069V9.68994C57.599 9.41394 57.375 9.18994 57.099 9.18994ZM56.599 37.1069H14.832V10.1899H56.599V37.1069Z" fill="#63312D"/>
</g>
</g>
<g id="Group_10">
<g id="Group_11">
<path id="Vector_5" d="M57.0996 9.68994H60.8916V37.6069H57.0996V9.68994Z" fill="#E1DDDD"/>
</g>
</g>
<g id="Group_12">
<g id="Group_13">
<path id="Vector_6" d="M60.8916 9.18994H57.0996C56.8236 9.18994 56.5996 9.41394 56.5996 9.68994V37.6069C56.5996 37.8829 56.8236 38.1069 57.0996 38.1069H60.8916C61.1676 38.1069 61.3916 37.8829 61.3916 37.6069V9.68994C61.3916 9.41394 61.1676 9.18994 60.8916 9.18994ZM60.3916 37.1069H57.5996V10.1899H60.3916V37.1069Z" fill="#63312D"/>
</g>
</g>
<g id="Group_14">
<g id="Group_15">
<path id="Vector_7" d="M57.5684 9.51694C57.4964 9.32094 57.3094 9.18994 57.0994 9.18994H14.3324C14.1234 9.18994 13.9364 9.31994 13.8634 9.51694C13.7904 9.71294 13.8474 9.93394 14.0074 10.0699L35.3904 28.4029C35.4844 28.4839 35.6004 28.5239 35.7164 28.5239C35.8324 28.5239 35.9484 28.4839 36.0424 28.4029L57.4244 10.0699C57.5834 9.93294 57.6414 9.71294 57.5684 9.51694ZM35.7164 27.3649L15.6844 10.1899H55.7474L35.7164 27.3649Z" fill="#63312D"/>
</g>
</g>
<g id="Group_16">
<g id="Group_17">
<path id="Vector_8" d="M3.10742 26.3931H45.8744V54.3101H3.10742V26.3931Z" fill="#F9DD9D"/>
</g>
</g>
<g id="Group_18">
<g id="Group_19">
<path id="Vector_9" d="M3.10742 26.3931L24.4914 44.7261L45.8744 26.3931H3.10742Z" fill="#F9DD9D"/>
</g>
</g>
<g id="Group_20">
<g id="Group_21">
<path id="Vector_10" d="M3.10742 26.3931V54.3101H5.29542V28.4561H45.8744V26.3931H3.10742Z" fill="#FFEECF"/>
</g>
</g>
<g id="Group_22">
<g id="Group_23">
<path id="Vector_11" d="M24.4914 44.7261L3.10742 26.3931V28.9871L24.4914 47.3201L45.8744 28.9871V26.3931L24.4914 44.7261Z" fill="#EFC36A"/>
</g>
</g>
<g id="Group_24">
<g id="Group_25">
<path id="Vector_12" d="M45.8744 25.8931H3.10742C2.83142 25.8931 2.60742 26.1171 2.60742 26.3931V54.3101C2.60742 54.5861 2.83142 54.8101 3.10742 54.8101H45.8744C46.1504 54.8101 46.3744 54.5861 46.3744 54.3101V26.3931C46.3744 26.1171 46.1504 25.8931 45.8744 25.8931ZM45.3744 53.8101H3.60742V26.8931H45.3744V53.8101Z" fill="#63312D"/>
</g>
</g>
<g id="Group_26">
<g id="Group_27">
<path id="Vector_13" d="M45.875 26.3931H49.667V54.3101H45.875V26.3931Z" fill="#EFC36A"/>
</g>
</g>
<g id="Group_28">
<g id="Group_29">
<path id="Vector_14" d="M49.667 25.8931H45.875C45.599 25.8931 45.375 26.1171 45.375 26.3931V54.3101C45.375 54.5861 45.599 54.8101 45.875 54.8101H49.667C49.943 54.8101 50.167 54.5861 50.167 54.3101V26.3931C50.167 26.1171 49.943 25.8931 49.667 25.8931ZM49.167 53.8101H46.375V26.8931H49.167V53.8101Z" fill="#63312D"/>
</g>
</g>
<g id="Group_30">
<g id="Group_31">
<path id="Vector_15" d="M46.3438 26.2201C46.2718 26.0241 46.0848 25.8931 45.8748 25.8931H3.10779C2.89879 25.8931 2.71179 26.0231 2.63879 26.2201C2.56579 26.4161 2.62279 26.6371 2.78279 26.7731L24.1658 45.1061C24.2598 45.1871 24.3758 45.2271 24.4918 45.2271C24.6078 45.2271 24.7238 45.1871 24.8178 45.1061L46.1998 26.7731C46.3588 26.6361 46.4168 26.4161 46.3438 26.2201ZM24.4918 44.0681L4.45979 26.8931H44.5228L24.4918 44.0681Z" fill="#63312D"/>
</g>
</g>
</g>
</g>
</svg>
