<svg width="72" height="33" viewBox="0 0 72 33" fill="none" xmlns="http://www.w3.org/2000/svg">
<g id="Group 34159">
<path id="Vector 1" d="M3 30V10.6304C3 6.41626 6.41626 3 10.6304 3V3C14.8446 3 18.2609 6.41626 18.2609 10.6304V30" stroke="white" stroke-width="6"/>
<path id="Vector 2" d="M18.2598 30V10.6304C18.2598 6.41626 21.676 3 25.8902 3V3C30.1044 3 33.5206 6.41626 33.5206 10.6304V30" stroke="white" stroke-width="6"/>
<path id="Vector 3" d="M46.2501 15.913H58.778C64.6583 15.913 69.4512 10.2354 65.1841 6.18945C63.2148 4.32225 60.4959 3 56.8153 3C47.424 3 45.0762 10.8261 45.0762 14.7391V15.913C45.4675 23.7391 51.8849 36.3391 69.7283 24.1304" stroke="white" stroke-width="6"/>
</g>
</svg>
