<svg xmlns="http://www.w3.org/2000/svg" xmlns:xlink="http://www.w3.org/1999/xlink" version="1.1" width="510.2362pt" height="510.2362pt" viewBox="0 0 510.2362 510.2362">
<g id="layer_1" data-name="">
<path transform="matrix(1,0,0,-1,0,510.2362)" d="M28.3465 481.8898H481.8898V28.3465H28.3465Z" fill="#054a91" fill-rule="evenodd"/>
<path transform="matrix(1,0,0,-1,0,510.2362)" d="M139.773 420.188C147.4432 420.188 154.7297 418.1037 161.6332 413.9938 168.5367 409.8838 174.3849 404.3271 179.1788 397.2657 189.3416 412.5467 203.0522 420.188 220.3104 420.188 233.7333 420.188 245.3822 414.6885 255.2576 403.6331 265.1329 392.5769 270.0709 379.0321 270.0709 362.9976V264.594H249.9364V352.5786C249.9364 363.5189 247.1564 373.0113 241.5946 381.0577 236.0339 389.1042 228.9393 393.0982 220.3104 393.0982 211.6811 393.0982 204.3947 389.0458 198.4501 380.8843 192.5053 372.7219 189.5335 363.2871 189.5335 352.5786V264.594H169.399V353.8522C169.399 364.8498 166.6191 374.3433 161.0583 382.3889 155.4965 390.4353 148.4019 394.4866 139.773 394.4866 131.1437 394.4866 123.6178 390.8407 117.1945 383.4887 110.7706 376.1955 107.5578 367.4546 107.5578 357.2099V264.594H87.7119V366.2393C87.7119 382.0419 92.8896 394.9506 103.2435 405.0215 113.5981 415.1514 125.7749 420.188 139.773 420.188ZM421.9398 330.2351H329.0822C324.8643 330.2351 321.6994 330.0032 319.6865 329.5403 317.6734 329.0774 316.4749 327.4571 316.0919 324.678 314.941 317.2689 318.7755 309.1076 327.5963 300.1929 336.4174 291.2794 345.6215 286.8216 355.2094 286.8216 361.345 286.8216 367.6737 288.5579 374.1922 292.0314 378.6032 294.3468 383.3972 297.8195 388.5741 302.4505L401.5179 284.3904C394.2315 276.9812 386.945 271.5403 379.6586 268.0676 372.3712 264.594 364.0294 262.8575 354.6346 262.8575 336.9923 262.8575 321.988 270.6721 309.6201 286.3012 297.2514 301.9292 291.0679 320.6268 291.0679 342.3903 291.0679 363.2295 297.3954 381.0577 310.0518 395.8761 322.7071 410.6945 337.8557 418.1037 355.4969 418.1037 373.5218 418.1037 389.1022 410.2892 402.2368 394.6612 415.3725 379.0321 421.9398 360.4507 421.9398 338.9179 421.9398 334.9811 421.9398 332.0872 421.9398 330.2351ZM397.2042 358.7142C395.0946 368.9025 390.3486 377.2372 382.9657 383.7209 375.5826 390.2034 367.0977 393.4451 357.51 393.4451 348.114 393.4451 339.0531 389.3936 330.3286 381.2896 321.6039 373.1856 317.6257 365.082 318.3925 356.978 318.5844 355.8203 319.4467 355.0096 320.9814 354.5467 322.5149 354.0841 324.2407 353.8522 326.1583 353.8522 327.8849 353.8522 329.1301 353.8522 329.898 353.8522H383.3972C385.5059 353.8522 387.1361 353.8522 388.2866 353.8522 391.5471 353.8522 393.9917 354.1989 395.6219 354.8937 397.2521 355.5884 397.7782 356.862 397.2042 358.7142" fill="#ffffff"/>
<path transform="matrix(1,0,0,-1,0,510.2362)" d="M140.3566 90.0482C148.0269 90.0482 155.3134 92.1325 162.2157 96.2425 169.1192 100.3524 174.9685 105.9092 179.7616 112.9706 189.9252 97.6895 203.6358 90.0482 220.8929 90.0482 234.3161 90.0482 245.9659 95.5477 255.8401 106.6031 265.7166 117.6593 270.6537 131.2041 270.6537 147.2386V245.6422H250.5189V157.6576C250.5189 146.7173 247.7392 137.2249 242.1782 129.1785 236.6175 121.1321 229.5221 117.138 220.8929 117.138 212.2648 117.138 204.9775 121.1905 199.0338 129.352 193.089 137.5143 190.1171 146.9492 190.1171 157.6576V245.6422H169.9826V156.384C169.9826 145.3864 167.2027 135.8929 161.642 127.8473 156.0801 119.8009 148.9856 115.7496 140.3566 115.7496 131.7274 115.7496 124.2014 119.3956 117.7773 126.7475 111.3531 134.0408 108.1414 142.7817 108.1414 153.0264V245.6422H88.2955V143.9969C88.2955 128.1943 93.4733 115.2856 103.8271 105.2147 114.1818 95.0848 126.3577 90.0482 140.3566 90.0482" fill="#ffffff"/>
<path transform="matrix(1,0,0,-1,0,510.2362)" d="M422.5235 159.51H329.6659C325.4468 159.51 322.2831 159.2782 320.2702 158.8153 318.257 158.3524 317.0585 156.7321 316.6747 153.953 315.5238 146.5438 319.3591 138.3826 328.18 129.4679 337.0003 120.5544 346.2052 116.0963 355.792 116.0963 361.9287 116.0963 368.2565 117.8328 374.7759 121.3064 379.1869 123.6214 383.98 127.0942 389.1577 131.7254L402.1016 113.6653C394.814 106.2561 387.5287 100.8153 380.2414 97.3426 372.9549 93.8687 364.6131 92.1325 355.2182 92.1325 337.576 92.1325 322.5716 99.9471 310.2026 115.5762 297.8351 131.2041 291.6516 149.9014 291.6516 171.6653 291.6516 192.5045 297.9782 210.3327 310.6344 225.1511 323.2908 239.9695 338.4383 247.3787 356.0805 247.3787 374.1055 247.3787 389.6858 239.5641 402.8204 223.9359 415.9562 208.3071 422.5235 189.7254 422.5235 168.1926 422.5235 164.2561 422.5235 161.3622 422.5235 159.51ZM397.787 187.9892C395.6783 198.1772 390.9311 206.5122 383.5494 212.9956 376.1663 219.4781 367.6813 222.7201 358.0937 222.7201 348.6977 222.7201 339.6368 218.6685 330.9123 210.5646 322.1875 202.4606 318.2094 194.3566 318.975 186.2527 319.1681 185.0953 320.0304 184.2846 321.5639 183.8217 323.0986 183.3588 324.8243 183.1269 326.742 183.1269 328.4674 183.1269 329.7138 183.1269 330.4817 183.1269H383.98C386.0895 183.1269 387.7197 183.1269 388.8703 183.1269 392.1307 183.1269 394.5753 183.4739 396.2044 184.1686 397.8346 184.8634 398.3618 186.1367 397.787 187.9892" fill="#ffffff"/>
</g>
</svg>
