<svg width="24" height="24" viewBox="0 0 24 24" fill="none" xmlns="http://www.w3.org/2000/svg">
<g id="new 2" clip-path="url(#clip0_416_4368)">
<path id="Vector" d="M24 12.0375L20.85 9.49575L22.875 5.982L18.6 5.6085L18.225 1.49625L14.625 3.216L12.15 0L9.825 3.2895L6.075 1.3455L5.85 5.60775L1.65 5.832L3.225 9.86925L0 11.8133L3.3 14.2808L1.65 17.7945L5.775 18.243L6 22.4303L9.825 20.6355L12.375 24L14.625 20.6355L18.15 22.3552L18.45 18.168L22.575 18.093L21.075 14.6535L24 12.0375Z" fill="#E04F5F"/>
<g id="Group">
<path id="Vector_2" d="M7.17142 15.2115L5.69092 10.9815L6.80767 10.5907L8.22892 11.8335C8.63617 12.1912 9.07117 12.6307 9.42742 13.0417L9.44617 13.035C9.18742 12.498 8.96842 11.9332 8.74717 11.3002L8.31442 10.0635L9.19267 9.75674L10.6732 13.9867L9.66892 14.3385L8.19442 13.023C7.78492 12.6592 7.31767 12.2092 6.93667 11.787L6.92092 11.7997C7.14142 12.3495 7.36267 12.9412 7.60342 13.6312L8.04967 14.9055L7.17142 15.2115Z" fill="white"/>
<path id="Vector_3" d="M11.7569 12.2265C11.9271 12.6112 12.3809 12.663 12.8279 12.507C13.1541 12.393 13.4024 12.2557 13.6304 12.0847L13.9821 12.687C13.7129 12.9225 13.3514 13.1197 12.9374 13.2652C11.8956 13.6297 11.0886 13.236 10.7519 12.276C10.4804 11.4982 10.6626 10.4692 11.7291 10.0957C12.7206 9.74849 13.3679 10.389 13.6334 11.148C13.6904 11.3107 13.7226 11.4622 13.7346 11.5357L11.7569 12.2265ZM12.6516 11.181C12.5706 10.9485 12.3336 10.5952 11.8941 10.749C11.4929 10.89 11.4569 11.31 11.5221 11.577L12.6516 11.181Z" fill="white"/>
<path id="Vector_4" d="M14.3143 9.26774L14.9975 10.437C15.1723 10.7347 15.3545 11.052 15.527 11.3865L15.5398 11.382C15.4798 11.0085 15.4438 10.626 15.4145 10.299L15.299 8.92349L16.0528 8.65949L16.7878 9.77549C16.9903 10.092 17.1928 10.4092 17.3788 10.7377L17.3908 10.7332C17.3128 10.3672 17.2543 9.99899 17.2003 9.62399L17.0375 8.31374L17.9735 7.98599L18.1055 11.3842L17.2085 11.6985L16.5418 10.7197C16.361 10.4452 16.2073 10.1887 16.0138 9.83399L16.0003 9.83849C16.0783 10.2405 16.1135 10.545 16.1338 10.8622L16.2035 12.0495L15.3065 12.3637L13.3423 9.60599L14.3143 9.26774Z" fill="white"/>
</g>
</g>
<defs>
<clipPath id="clip0_416_4368">
<rect width="24" height="24" fill="white"/>
</clipPath>
</defs>
</svg>
