<svg width="60" height="60" viewBox="0 0 60 60" fill="none" xmlns="http://www.w3.org/2000/svg">
<g clip-path="url(#clip0_416_3128)">
<path opacity="0.5" d="M1.79227 29.3364L5.89082e-08 30.0962C-0.000117129 30.5504 0.174609 31.0012 0.515508 31.3409L28.7632 59.4898C29.0928 59.8184 29.6591 59.9985 29.9916 60C30.3293 60.0015 30.9069 59.8237 31.2423 59.4894L59.4852 31.3228C59.8252 30.9837 59.9998 30.534 60.0002 30.0806L58.4419 29.3365C57.5729 29.3365 49.5022 29.3365 39.6961 29.3365L29.1809 32.7308L20.2876 29.3365C11.0632 29.3364 3.38016 29.3364 1.79227 29.3364Z" fill="#054A91"/>
<path opacity="0.5" d="M59.9995 30.0807C59.9995 30.5337 59.8252 30.9832 59.4845 31.3226L31.2418 59.4892C30.9095 59.8215 30.337 59.9995 30 59.9995V32.4661L39.696 29.3364H58.4418L59.9995 30.0807Z" fill="#054A91"/>
<path d="M20.2874 29.3364L30 59.9995L39.6958 29.3364H20.2874Z" fill="#054A91"/>
<path opacity="0.8" d="M39.6959 29.3364L30 59.9995V29.3364H39.6959Z" fill="#054A91"/>
<path opacity="0.5" d="M59.7055 29.1049L50.3039 15.0186C50.1738 14.8239 50.0062 14.6584 49.8132 14.5307L48.9611 14.9399L31.6264 15.0479L30 14.2376L28.6856 15.0662L11.39 15.174L10.1831 14.5324C9.99152 14.6598 9.82453 14.8247 9.69469 15.0196L0.293789 29.1236C0.0958594 29.4205 0 29.7593 0 30.0962C3.40559 30.0953 55.6015 30.0816 60 30.0804C60.0002 29.7426 59.9041 29.4026 59.7055 29.1049Z" fill="#054A91"/>
<path opacity="0.5" d="M59.9995 30.0808C57.8202 30.0808 43.9012 30.0854 30 30.089V14.2376L31.6269 15.0475L48.9612 14.9398L49.8132 14.5301C50.0064 14.6589 50.1737 14.8239 50.3037 15.0182L59.7059 29.1045C59.9047 29.4031 60.0007 29.7424 59.9995 30.0808Z" fill="#054A91"/>
<path opacity="0.6" d="M11.1554 14.2376C10.8043 14.2376 10.4675 14.3432 10.1835 14.5322L20.5963 30.0908H20.5975L29.9994 14.2376H11.1554Z" fill="#054A91"/>
<path opacity="0.6" d="M39.4059 30.0859L49.8129 14.5304C49.5294 14.3426 49.1937 14.2377 48.8436 14.2377H29.9994L39.3984 30.086H39.4059V30.0859Z" fill="#054A91"/>
<path opacity="0.2" d="M19.5028 42.3421C16.5643 42.3421 14.1736 39.9514 14.1736 37.0129C14.1736 36.0422 13.3866 35.2551 12.4158 35.2551C11.445 35.2551 10.658 36.0422 10.658 37.0129C10.658 39.9367 8.28175 42.3421 5.32886 42.3421C4.35808 42.3421 3.57104 43.1291 3.57104 44.0999C3.57104 45.0706 4.35808 45.8577 5.32886 45.8577C8.26734 45.8577 10.658 48.2483 10.658 51.1868C10.658 52.1576 11.445 52.9446 12.4158 52.9446C13.3866 52.9446 14.1736 52.1576 14.1736 51.1868C14.1736 48.2633 16.5496 45.8577 19.5028 45.8577C20.4736 45.8577 21.2606 45.0706 21.2606 44.0999C21.2606 43.1291 20.4736 42.3421 19.5028 42.3421Z" fill="#054A91"/>
<path opacity="0.2" d="M46.4448 7.08692C43.5064 7.08692 41.1157 4.69629 41.1157 1.75781C41.1157 0.787032 40.3287 0 39.3579 0C38.3871 0 37.6001 0.787032 37.6001 1.75781C37.6001 4.69629 35.2096 7.08692 32.271 7.08692C31.3002 7.08692 30.5132 7.87395 30.5132 8.84473C30.5132 9.81551 31.3002 10.6025 32.271 10.6025C35.2095 10.6025 37.6001 12.9932 37.6001 15.9317C37.6001 16.9024 38.3871 17.6895 39.3579 17.6895C40.3287 17.6895 41.1157 16.9024 41.1157 15.9317C41.1157 12.9932 43.5062 10.6025 46.4448 10.6025C47.4156 10.6025 48.2026 9.81551 48.2026 8.84473C48.2026 7.87395 47.4156 7.08692 46.4448 7.08692Z" fill="#054A91"/>
</g>
<defs>
<clipPath id="clip0_416_3128">
<rect width="60" height="60" fill="white"/>
</clipPath>
</defs>
</svg>
