<svg width="18" height="18" viewBox="0 0 18 18" fill="none" xmlns="http://www.w3.org/2000/svg">
<g clip-path="url(#clip0_416_3107)">
<path d="M0.53768 8.8009L1.76725e-08 9.02886C-3.51386e-05 9.16512 0.0523828 9.30037 0.154652 9.40225L8.62896 17.8469C8.72786 17.9455 8.89773 17.9995 8.99747 18C9.09879 18.0005 9.27207 17.9471 9.37269 17.8468L17.8456 9.39684C17.9475 9.29509 17.9999 9.1602 18.0001 9.02418L17.5326 8.80094C17.2719 8.80094 14.8507 8.80094 11.9088 8.80094L8.75426 9.81924L6.08629 8.80094C3.31896 8.8009 1.01405 8.8009 0.53768 8.8009Z" fill="#FFB739"/>
<path d="M17.9999 9.02422C17.9999 9.16009 17.9475 9.29495 17.8453 9.39677L9.37255 17.8467C9.27285 17.9464 9.10111 17.9999 9 17.9999V9.73982L11.9088 8.8009H17.5325L17.9999 9.02422Z" fill="#FF9441"/>
<path d="M6.08618 8.8009L8.99997 17.9999L11.9087 8.8009H6.08618Z" fill="#FF9441"/>
<path d="M11.9088 8.8009L9 17.9999V8.8009H11.9088Z" fill="#FF7149"/>
<path d="M17.9117 8.73147L15.0912 4.50559C15.0521 4.44716 15.0019 4.39752 14.944 4.3592L14.6883 4.48196L9.48793 4.51438L9 4.27127L8.60569 4.51986L3.41701 4.5522L3.05494 4.35972C2.99746 4.39794 2.94736 4.4474 2.90841 4.50587L0.0881367 8.73706C0.0287578 8.82615 0 8.92779 0 9.02886C1.02168 9.02858 16.6804 9.02447 18 9.02412C18.0001 8.92276 17.9712 8.82077 17.9117 8.73147Z" fill="#FFD17E"/>
<path d="M17.9999 9.02422C17.3461 9.02422 13.1704 9.02563 9 9.02668V4.27127L9.48807 4.51424L14.6884 4.48193L14.944 4.35902C15.0019 4.39766 15.0521 4.44716 15.0911 4.50545L17.9118 8.73133C17.9714 8.82091 18.0002 8.92272 17.9999 9.02422Z" fill="#FFB739"/>
<path d="M3.34664 4.27127C3.24131 4.27127 3.14027 4.30295 3.05505 4.35965L6.1789 9.02724H6.17925L8.99983 4.27127H3.34664Z" fill="#FFB739"/>
<path d="M11.8218 9.02576L14.9439 4.35912C14.8589 4.30277 14.7582 4.2713 14.6531 4.2713H8.99988L11.8196 9.0258H11.8218V9.02576Z" fill="#FF9441"/>
<path d="M5.85082 12.7026C4.96927 12.7026 4.25205 11.9854 4.25205 11.1039C4.25205 10.8126 4.01594 10.5765 3.72471 10.5765C3.43347 10.5765 3.19736 10.8126 3.19736 11.1039C3.19736 11.981 2.4845 12.7026 1.59863 12.7026C1.3074 12.7026 1.07129 12.9387 1.07129 13.23C1.07129 13.5212 1.3074 13.7573 1.59863 13.7573C2.48018 13.7573 3.19736 14.4745 3.19736 15.356C3.19736 15.6473 3.43347 15.8834 3.72471 15.8834C4.01594 15.8834 4.25205 15.6473 4.25205 15.356C4.25205 14.479 4.96484 13.7573 5.85082 13.7573C6.14205 13.7573 6.37816 13.5212 6.37816 13.23C6.37816 12.9387 6.14205 12.7026 5.85082 12.7026Z" fill="#FFD17E"/>
<path d="M13.9334 2.12607C13.0519 2.12607 12.3347 1.40889 12.3347 0.527344C12.3347 0.236109 12.0986 0 11.8073 0C11.5161 0 11.28 0.236109 11.28 0.527344C11.28 1.40889 10.5629 2.12607 9.68127 2.12607C9.39004 2.12607 9.15393 2.36218 9.15393 2.65342C9.15393 2.94465 9.39004 3.18076 9.68127 3.18076C10.5628 3.18076 11.28 3.89795 11.28 4.77949C11.28 5.07073 11.5161 5.30684 11.8073 5.30684C12.0986 5.30684 12.3347 5.07073 12.3347 4.77949C12.3347 3.89795 13.0518 3.18076 13.9334 3.18076C14.2247 3.18076 14.4608 2.94465 14.4608 2.65342C14.4608 2.36218 14.2247 2.12607 13.9334 2.12607Z" fill="#FFB739"/>
</g>
<defs>
<clipPath id="clip0_416_3107">
<rect width="18" height="18" fill="white"/>
</clipPath>
</defs>
</svg>
