<svg width="56" height="56" viewBox="0 0 56 56" fill="none" xmlns="http://www.w3.org/2000/svg">
<g clip-path="url(#clip0_416_3222)">
<path opacity="0.5" d="M2.09161 27.3938L0.439209 28.0943C0.439101 28.5131 0.600192 28.9287 0.914488 29.2418L26.9578 55.1941C27.2617 55.497 27.7838 55.6631 28.0903 55.6645C28.4017 55.6659 28.9342 55.502 29.2435 55.1938L55.2823 29.2252C55.5958 28.9125 55.7568 28.498 55.7572 28.0799L54.3204 27.3939C53.5193 27.3939 46.0784 27.3939 37.0375 27.3939L27.3429 30.5233L19.1436 27.3939C10.6391 27.3938 3.55559 27.3938 2.09161 27.3938Z" fill="#37A06E"/>
<path opacity="0.5" d="M55.7566 28.0801C55.7566 28.4976 55.5958 28.9121 55.2818 29.225L29.2431 55.1936C28.9367 55.5 28.4089 55.6641 28.0981 55.6641V30.2793L37.0375 27.3938H54.3204L55.7566 28.0801Z" fill="#37A06E"/>
<path d="M19.1433 27.3938L28.098 55.6641L37.0372 27.3938H19.1433Z" fill="#37A06E"/>
<path opacity="0.8" d="M37.0374 27.3938L28.0981 55.6641V27.3938H37.0374Z" fill="#37A06E"/>
<path opacity="0.5" d="M55.4855 27.1804L46.8175 14.1934C46.6976 14.0138 46.5431 13.8612 46.3652 13.7435L45.5795 14.1208L29.5976 14.2204L28.0981 13.4733L26.8863 14.2372L10.9404 14.3366L9.82767 13.7451C9.65102 13.8625 9.49706 14.0146 9.37735 14.1942L0.710072 27.1976C0.527588 27.4714 0.439209 27.7837 0.439209 28.0943C3.57903 28.0935 51.7017 28.0808 55.757 28.0798C55.7572 27.7683 55.6686 27.4548 55.4855 27.1804Z" fill="#37A06E"/>
<path opacity="0.5" d="M55.7566 28.0801C53.7473 28.0801 40.9146 28.0844 28.0981 28.0876V13.4733L29.5981 14.2199L45.5796 14.1206L46.3652 13.7429C46.5433 13.8617 46.6976 14.0138 46.8174 14.1929L55.4858 27.18C55.6692 27.4553 55.7577 27.7682 55.7566 28.0801Z" fill="#37A06E"/>
<path opacity="0.6" d="M10.724 13.4733C10.4003 13.4733 10.0898 13.5706 9.82788 13.7449L19.4281 28.0893H19.4292L28.0974 13.4733H10.724Z" fill="#37A06E"/>
<path opacity="0.6" d="M36.7701 28.0848L46.365 13.7433C46.1036 13.5701 45.7941 13.4734 45.4713 13.4734H28.0977L36.7632 28.0849H36.7701V28.0848Z" fill="#37A06E"/>
<path opacity="0.2" d="M18.4202 39.3845C15.711 39.3845 13.5068 37.1805 13.5068 34.4713C13.5068 33.5763 12.7812 32.8507 11.8862 32.8507C10.9912 32.8507 10.2656 33.5763 10.2656 34.4713C10.2656 37.1668 8.07478 39.3845 5.35233 39.3845C4.4573 39.3845 3.73169 40.1101 3.73169 41.0052C3.73169 41.9002 4.4573 42.6258 5.35233 42.6258C8.0615 42.6258 10.2656 44.8299 10.2656 47.539C10.2656 48.4341 10.9912 49.1597 11.8862 49.1597C12.7812 49.1597 13.5068 48.4341 13.5068 47.539C13.5068 44.8437 15.6974 42.6258 18.4202 42.6258C19.3152 42.6258 20.0408 41.9002 20.0408 41.0052C20.0408 40.1101 19.3152 39.3845 18.4202 39.3845Z" fill="#37A06E"/>
<path opacity="0.2" d="M43.2597 6.88061C40.5505 6.88061 38.3464 4.67654 38.3464 1.96737C38.3464 1.07235 37.6208 0.346735 36.7258 0.346735C35.8308 0.346735 35.1052 1.07235 35.1052 1.96737C35.1052 4.67654 32.9012 6.88061 30.1919 6.88061C29.2969 6.88061 28.5713 7.60622 28.5713 8.50125C28.5713 9.39627 29.2969 10.1219 30.1919 10.1219C32.9011 10.1219 35.1052 12.326 35.1052 15.0351C35.1052 15.9301 35.8308 16.6558 36.7258 16.6558C37.6208 16.6558 38.3464 15.9301 38.3464 15.0351C38.3464 12.326 40.5504 10.1219 43.2597 10.1219C44.1547 10.1219 44.8803 9.39627 44.8803 8.50125C44.8803 7.60622 44.1547 6.88061 43.2597 6.88061Z" fill="#37A06E"/>
</g>
<defs>
<clipPath id="clip0_416_3222">
<rect width="55.3178" height="55.3178" fill="white" transform="translate(0.439209 0.346735)"/>
</clipPath>
</defs>
</svg>
