<svg width="24" height="24" viewBox="0 0 24 24" fill="none" xmlns="http://www.w3.org/2000/svg">
<g id="top-rated 1">
<g id="Icons">
<g id="Group">
<g id="Group_2">
<g id="Group_3">
<path id="Vector" d="M15 15.75V22.1227C15 22.404 14.7075 22.584 14.4562 22.4603L12.1688 21.3127C12.1163 21.2865 12.06 21.2753 12 21.2753C11.94 21.2753 11.8837 21.2865 11.8312 21.3127L9.54375 22.4603C9.2925 22.584 9 22.404 9 22.1227V15.75H15Z" fill="#00A0C8"/>
</g>
<g id="Group_4">
<path id="Vector_2" d="M15 15.75V22.1227C15 22.404 14.7075 22.584 14.4562 22.4603L12.1688 21.3127C12.1163 21.2865 12.06 21.2753 12 21.2753V15.75H15Z" fill="#C80A50"/>
</g>
<g id="Group_5">
<path id="Vector_3" d="M15 15.75V17.3738C14.0812 17.775 13.0687 18 12 18V15.75H15Z" fill="#A00028"/>
</g>
</g>
<g id="Group_6">
<path id="Vector_4" d="M12 15.75V18C10.9313 18 9.91875 17.775 9 17.3738V15.75H12Z" fill="#0082AA"/>
</g>
<g id="Group_7">
<path id="Vector_5" d="M12 17.25C16.1421 17.25 19.5 13.8921 19.5 9.75C19.5 5.60786 16.1421 2.25 12 2.25C7.85786 2.25 4.5 5.60786 4.5 9.75C4.5 13.8921 7.85786 17.25 12 17.25Z" fill="#FAB400"/>
</g>
<g id="Group_8">
<path id="Vector_6" d="M19.5 9.75C19.5 13.8937 16.1438 17.25 12 17.25C7.85625 17.25 4.5 13.8937 4.5 9.75C4.5 9.63 4.50375 9.50625 4.51125 9.38625C4.71 13.35 7.9875 16.5 12 16.5C16.0125 16.5 19.29 13.35 19.4888 9.38625C19.4963 9.50625 19.5 9.63 19.5 9.75Z" fill="#DC9600"/>
</g>
<g id="Group_9">
<g id="Group_10">
<path id="Vector_7" d="M22.125 3H21V1.875C21 1.668 20.832 1.5 20.625 1.5H19.875C19.668 1.5 19.5 1.668 19.5 1.875V3H18.375C18.168 3 18 3.168 18 3.375V4.125C18 4.332 18.168 4.5 18.375 4.5H19.5V5.625C19.5 5.832 19.668 6 19.875 6H20.625C20.832 6 21 5.832 21 5.625V4.5H22.125C22.332 4.5 22.5 4.332 22.5 4.125V3.375C22.5 3.168 22.332 3 22.125 3Z" fill="#FAB400"/>
</g>
</g>
<g id="Group_11">
<g id="Group_12">
<path id="Vector_8" d="M5.625 16.5H4.5V15.375C4.5 15.168 4.332 15 4.125 15H3.375C3.168 15 3 15.168 3 15.375V16.5H1.875C1.668 16.5 1.5 16.668 1.5 16.875V17.625C1.5 17.832 1.668 18 1.875 18H3V19.125C3 19.332 3.168 19.5 3.375 19.5H4.125C4.332 19.5 4.5 19.332 4.5 19.125V18H5.625C5.832 18 6 17.832 6 17.625V16.875C6 16.668 5.832 16.5 5.625 16.5Z" fill="#FAB400"/>
</g>
</g>
<g id="Group_13">
<path id="Vector_9" d="M12 15C14.8995 15 17.25 12.6495 17.25 9.75C17.25 6.85051 14.8995 4.5 12 4.5C9.10051 4.5 6.75 6.85051 6.75 9.75C6.75 12.6495 9.10051 15 12 15Z" fill="#F0F0F0"/>
</g>
<g id="Group_14">
<path id="Vector_10" d="M12.3336 6.74737L13.075 8.24925C13.129 8.35875 13.2336 8.43488 13.3547 8.4525L15.0122 8.69325C15.3171 8.7375 15.4386 9.11212 15.2181 9.327L14.0185 10.4962C13.9307 10.5817 13.891 10.7048 13.9116 10.8251L14.1947 12.4759C14.2468 12.7796 13.9281 13.011 13.6555 12.8677L12.1727 12.0881C12.0643 12.0311 11.935 12.0311 11.827 12.0881L10.3442 12.8677C10.0716 13.011 9.75284 12.7796 9.80496 12.4759L10.0881 10.8251C10.1087 10.7048 10.069 10.5814 9.98121 10.4962L8.78159 9.327C8.56109 9.11212 8.68259 8.7375 8.98746 8.69325L10.645 8.4525C10.7661 8.43488 10.8707 8.35875 10.9247 8.24925L11.6661 6.74737C11.8033 6.47137 12.1971 6.47137 12.3336 6.74737Z" fill="#FAB400"/>
</g>
<g id="Group_15">
<path id="Vector_11" d="M9.98273 10.4962L8.78273 9.32624C8.62148 9.16874 8.64398 8.92499 8.79023 8.78999L9.98273 9.95624C10.069 10.0425 10.1102 10.1662 10.0877 10.2862L10.039 10.5675C10.024 10.5412 10.0052 10.5187 9.98273 10.4962Z" fill="#DC9600"/>
</g>
<g id="Group_16">
<path id="Vector_12" d="M14.1935 12.4763C14.246 12.78 13.9273 13.0125 13.6535 12.87L12.1723 12.09C12.0635 12.0338 11.936 12.0338 11.8273 12.09L10.346 12.87C10.0723 13.0125 9.75352 12.78 9.80602 12.4763L9.85477 12.1913C9.94852 12.3488 10.1585 12.4275 10.346 12.3263L11.8273 11.55C11.936 11.49 12.0635 11.49 12.1723 11.55L13.6535 12.3263C13.841 12.4275 14.051 12.3488 14.1448 12.1913L14.1935 12.4763Z" fill="#DC9600"/>
</g>
<g id="Group_17">
<path id="Vector_13" d="M15.2173 9.32624L14.0173 10.4962C13.9948 10.5187 13.9761 10.5412 13.9611 10.5675L13.9123 10.2862C13.8898 10.1662 13.9311 10.0425 14.0173 9.95624L15.2098 8.78999C15.3561 8.92499 15.3786 9.16874 15.2173 9.32624Z" fill="#DC9600"/>
</g>
</g>
</g>
</g>
</svg>
