<svg width="35" height="35" viewBox="0 0 35 35" fill="none" xmlns="http://www.w3.org/2000/svg">
<g id="united-kingdom 1">
<g clip-path="url(#clip0_416_1049)">
<path id="Vector" d="M27.3438 35H7.65625C3.42781 35 0 31.5722 0 27.3438V7.65625C0 3.42781 3.42781 0 7.65625 0H27.3438C31.5722 0 35 3.42781 35 7.65625V27.3438C35 31.5722 31.5722 35 27.3438 35Z" fill="#41479B"/>
<g id="Group">
<path id="Vector_2" d="M34.9995 27.343V25.6622L29.5705 22.1053H34.9995V20.2632H20.2627V35H22.1048V23.8205L33.7896 31.4761C34.2034 30.8318 34.5229 30.1212 34.7295 29.364" fill="#F5F5F5"/>
<path id="Vector_3" d="M0.514814 30.1084C0.701299 30.5897 0.934678 31.0475 1.20989 31.4761L12.8947 23.8205V35H14.7368V20.2632H0V22.1053H5.42903L0 25.6622V27.3437C0 27.6381 0.0172266 27.9284 0.0495605 28.2142" fill="#F5F5F5"/>
<path id="Vector_4" d="M0 7.91649V9.33775L5.42903 12.8948H0V14.7368H14.7368V0H12.8948V11.1795L1.20989 3.52393C0.755781 4.23097 0.415146 5.01771 0.212871 5.8584" fill="#F5F5F5"/>
<path id="Vector_5" d="M34.4746 4.86507C34.2899 4.39346 34.0598 3.94454 33.7896 3.52386L22.1048 11.1795V0H20.2627V14.7368H34.9995V12.8948H29.5705L34.9995 9.33775V7.65625C34.9995 7.35137 34.9812 7.05072 34.9465 6.75514" fill="#F5F5F5"/>
</g>
<g id="Group_2">
<path id="Vector_6" d="M20.2632 0H14.7368V14.7368H0V20.2632H14.7368V35H20.2632V20.2632H35V14.7368H20.2632V0Z" fill="#FF4B55"/>
<path id="Vector_7" d="M9.46084 22.1053L0.0498047 28.2142C0.12459 28.8747 0.283184 29.5098 0.515127 30.1084L12.8444 22.1052L9.46084 22.1053Z" fill="#FF4B55"/>
<path id="Vector_8" d="M23.5479 22.1053L34.7305 29.3641C34.9061 28.7204 35.0004 28.0431 35.0004 27.3437V27.343L26.9314 22.1052L23.5479 22.1053Z" fill="#FF4B55"/>
<path id="Vector_9" d="M11.0526 12.8948L0.212871 5.8584C0.0740332 6.43508 0 7.03698 0 7.65625V7.91649L7.6691 12.8948H11.0526Z" fill="#FF4B55"/>
<path id="Vector_10" d="M25.4889 12.8948L34.9471 6.75514C34.8698 6.09589 34.7092 5.46219 34.4753 4.86514L22.1055 12.8948H25.4889Z" fill="#FF4B55"/>
</g>
</g>
</g>
<defs>
<clipPath id="clip0_416_1049">
<rect width="35" height="35" rx="17.5" fill="white"/>
</clipPath>
</defs>
</svg>
