<svg width="72" height="58" viewBox="0 0 72 58" fill="none" xmlns="http://www.w3.org/2000/svg">
<path id="Vector" d="M0.950013 14.9072L0.950013 14.9073C0.946934 15.797 1.49404 16.5944 2.3207 16.9037L2.33822 16.8569L2.3207 16.9037L14.2403 21.3627V34.9755C14.2403 35.4091 14.3718 35.8325 14.6175 36.1882C14.7535 36.3852 16.0092 38.1145 19.217 39.7451C23.2683 41.8046 28.5783 42.8472 34.9965 42.8472C41.4101 42.8472 46.7467 41.8068 50.8555 39.7514C54.0947 38.1312 55.3918 36.4201 55.5326 36.2254L55.5326 36.2254C55.7947 35.8625 55.9359 35.4249 55.9359 34.9757V21.4967L60.8264 19.7162V36.9126L55.4188 42.3735C55.0249 42.7713 54.8037 43.3106 54.8037 43.8729C54.8037 44.4352 55.0248 44.9747 55.4188 45.3723L60.8264 50.833V55.4065C60.8264 56.5772 61.7664 57.5273 62.9269 57.5273C64.0875 57.5273 65.0275 56.5772 65.0275 55.4065V50.833L70.4349 45.3723C71.255 44.5443 71.255 43.2016 70.4348 42.3735L65.0274 36.9127V18.1868L68.5342 16.9101C69.3667 16.6068 69.9216 15.8097 69.9223 14.9164C69.923 14.0235 69.3693 13.2252 68.537 12.9209L36.1515 1.07677C35.6894 0.907742 35.1828 0.907742 34.7207 1.07677L2.33527 12.921C1.50622 13.2242 0.953372 14.0175 0.950013 14.9072ZM18.4414 34.1503V22.9345L34.2666 28.8546L34.2662 28.8556L34.2762 28.8572C34.3256 28.865 34.3742 28.8803 34.4328 28.8986C34.4438 28.9021 34.455 28.9056 34.4667 28.9092C34.5399 28.9318 34.6249 28.956 34.7318 28.9707C34.9459 29.0001 35.2418 28.9904 35.7052 28.8623L35.7053 28.8625L35.709 28.8611L51.7347 23.0265L51.7346 34.128C49.9908 35.705 47.3904 36.8462 44.3784 37.5824C41.3578 38.3207 37.9275 38.6507 34.5419 38.6064C31.1563 38.5621 27.8171 38.1435 24.9785 37.3856C22.1484 36.63 19.822 35.5387 18.4414 34.1503ZM9.15658 14.9375L35.4361 5.32645L61.6418 14.9105L35.0064 24.6079L9.15658 14.9375ZM65.9791 43.8729L62.9268 46.9553L59.8744 43.8729L62.9268 40.7904L65.9791 43.8729Z" fill="white" stroke="white" stroke-width="0.1"/>
</svg>
