<svg width="28" height="28" viewBox="0 0 28 28" fill="none" xmlns="http://www.w3.org/2000/svg">
<g id="verify 2">
<g id="Layer 2">
<path id="Vector" d="M21.5167 10.8517V11.0606L21.6652 11.2074L23.4482 12.9696C23.76 13.2911 23.9367 13.727 23.9367 14.1833C23.9367 14.6408 23.7591 15.0779 23.4456 15.3996C23.4454 15.3997 23.4453 15.3999 23.4452 15.4L21.6598 17.2202L21.5167 17.366V17.5703V20.1356C21.5167 20.5951 21.3376 21.0339 21.0217 21.356C20.7061 21.6777 20.2802 21.8566 19.8382 21.8566H17.3219H17.112L16.965 22.0065L15.1796 23.8267C15.1794 23.8268 15.1793 23.827 15.1791 23.8272C14.8639 24.1463 14.4397 24.3237 13.9996 24.3237C13.5607 24.3237 13.1376 24.1473 12.8227 23.8298L11.094 22.0121L10.9462 21.8566H10.7317H8.16101C7.71898 21.8566 7.29305 21.6777 6.97748 21.356C6.66159 21.0339 6.48244 20.5951 6.48244 20.1356V17.5703V17.366L6.33939 17.2202L4.554 15.4C4.55382 15.3998 4.55364 15.3997 4.55346 15.3995C4.24006 15.0778 4.0625 14.6407 4.0625 14.1833C4.0625 13.727 4.23912 13.2911 4.55098 12.9696L6.33393 11.2074L6.48244 11.0606V10.8517V8.23095C6.48244 7.77143 6.66159 7.33263 6.97748 7.01058C7.29305 6.68886 7.71898 6.50993 8.16101 6.50993H10.7317H10.9462L11.094 6.3545L12.8226 4.53682C13.1376 4.21926 13.5607 4.04285 13.9996 4.04285C14.4397 4.04285 14.8639 4.2202 15.1791 4.53937C15.1792 4.53954 15.1794 4.53971 15.1796 4.53989L16.965 6.36006L17.112 6.50993H17.3219H19.8382C20.2802 6.50993 20.7061 6.68886 21.0217 7.01058L21.3786 6.66046L21.0217 7.01058C21.3376 7.33263 21.5167 7.77143 21.5167 8.23095V10.8517Z" fill="#2196F3" stroke="#2196F3"/>
<path id="Vector_2" d="M13.1834 16.9595C13.04 16.9604 12.8979 16.9324 12.7652 16.8771C12.6325 16.8218 12.5117 16.7404 12.41 16.6375L10.7325 14.9717C10.5273 14.7626 10.4121 14.479 10.4121 14.1833C10.4121 13.8875 10.5273 13.6039 10.7325 13.3948C10.9376 13.1857 11.2158 13.0682 11.5059 13.0682C11.7959 13.0682 12.0741 13.1857 12.2792 13.3948L13.1398 14.2832L15.6342 11.729C15.8394 11.5081 16.1221 11.3794 16.4204 11.371C16.7186 11.3627 17.0079 11.4755 17.2246 11.6846C17.4413 11.8937 17.5676 12.182 17.5758 12.4861C17.5839 12.7901 17.4733 13.0851 17.2682 13.306L14.0003 16.6375C13.8934 16.7459 13.7656 16.8305 13.625 16.8859C13.4844 16.9413 13.334 16.9664 13.1834 16.9595Z" fill="#ECECEC"/>
</g>
</g>
</svg>
