<svg width="30" height="30" viewBox="0 0 30 30" fill="none" xmlns="http://www.w3.org/2000/svg">
<path d="M24.1999 11.25V8.29999C24.1999 7.63695 23.9365 7.00107 23.4677 6.53223C22.9989 6.06338 22.363 5.79999 21.6999 5.79999H18.8124L16.7624 3.74999C16.294 3.28436 15.6604 3.02301 14.9999 3.02301C14.3395 3.02301 13.7058 3.28436 13.2374 3.74999L11.2499 5.79999H8.29993C7.63689 5.79999 7.001 6.06338 6.53216 6.53223C6.06332 7.00107 5.79993 7.63695 5.79993 8.29999V11.25L3.74993 13.2375C3.2843 13.7059 3.02295 14.3395 3.02295 15C3.02295 15.6605 3.2843 16.2941 3.74993 16.7625L5.79993 18.8125V21.7C5.79993 22.363 6.06332 22.9989 6.53216 23.4678C7.001 23.9366 7.63689 24.2 8.29993 24.2H11.2499L13.2374 26.25C13.7058 26.7156 14.3395 26.977 14.9999 26.977C15.6604 26.977 16.294 26.7156 16.7624 26.25L18.8124 24.2H21.6999C22.363 24.2 22.9989 23.9366 23.4677 23.4678C23.9365 22.9989 24.1999 22.363 24.1999 21.7V18.8125L26.2499 16.7625C26.7156 16.2941 26.9769 15.6605 26.9769 15C26.9769 14.3395 26.7156 13.7059 26.2499 13.2375L24.1999 11.25Z" fill="#2196F3"/>
<path d="M14.0624 18.125C13.8979 18.126 13.7349 18.0944 13.5826 18.0322C13.4303 17.97 13.2917 17.8784 13.1749 17.7625L11.2499 15.8875C11.0146 15.6521 10.8823 15.3329 10.8823 15C10.8823 14.6671 11.0146 14.3479 11.2499 14.1125C11.4853 13.8771 11.8046 13.7449 12.1374 13.7449C12.4703 13.7449 12.7896 13.8771 13.0249 14.1125L14.0124 15.1125L16.8749 12.2375C17.1103 11.9889 17.4348 11.8439 17.7771 11.8345C18.1193 11.8252 18.4513 11.9521 18.6999 12.1875C18.9486 12.4229 19.0935 12.7474 19.1029 13.0896C19.1123 13.4319 18.9853 13.7639 18.7499 14.0125L14.9999 17.7625C14.8773 17.8845 14.7306 17.9797 14.5692 18.0421C14.4079 18.1045 14.2353 18.1327 14.0624 18.125Z" fill="white"/>
</svg>
