<svg width="73" height="33" viewBox="0 0 73 33" fill="none" xmlns="http://www.w3.org/2000/svg">
<g id="Group 34160">
<path id="Vector 4" d="M34.3652 3L34.3652 22.3696C34.3652 26.5837 30.949 30 26.7348 30V30C22.5206 30 19.1044 26.5837 19.1044 22.3696L19.1044 3" stroke="white" stroke-width="6"/>
<path id="Vector 5" d="M19.1035 3L19.1035 22.3696C19.1035 26.5837 15.6873 30 11.4731 30V30C7.25891 30 3.84264 26.5837 3.84264 22.3696L3.84265 3" stroke="white" stroke-width="6"/>
<path id="Vector 6" d="M47.0919 15.913L59.6198 15.913C65.5001 15.913 70.293 10.2354 66.0259 6.18945C64.0566 4.32225 61.3377 3 57.6571 3C48.2658 3 45.918 10.8261 45.918 14.7391V15.913C46.3093 23.7391 52.7267 36.3391 70.5701 24.1304" stroke="white" stroke-width="6"/>
</g>
</svg>
